<?xml version="1.0" encoding="UTF-8" standalone="no"?>
<svg
   xmlns:dc="http://purl.org/dc/elements/1.1/"
   xmlns:cc="http://creativecommons.org/ns#"
   xmlns:rdf="http://www.w3.org/1999/02/22-rdf-syntax-ns#"
   xmlns:svg="http://www.w3.org/2000/svg"
   xmlns="http://www.w3.org/2000/svg"
   xmlns:xlink="http://www.w3.org/1999/xlink"
   xmlns:sodipodi="http://sodipodi.sourceforge.net/DTD/sodipodi-0.dtd"
   xmlns:inkscape="http://www.inkscape.org/namespaces/inkscape"
   data-v-1084b650=""
   viewBox="0 100 300 70"
   version="1.1"
   id="svg5823"
   sodipodi:docname="icon-left-font.svg"
   inkscape:version="0.92.3 (2405546, 2018-03-11)">
  <metadata
     id="metadata5829">
    <rdf:RDF>
      <cc:Work
         rdf:about="">
        <dc:format>image/svg+xml</dc:format>
        <dc:type
           rdf:resource="http://purl.org/dc/dcmitype/StillImage" />
        <dc:title></dc:title>
      </cc:Work>
    </rdf:RDF>
  </metadata>
  <defs
     id="defs5827">
    <clipPath
       clipPathUnits="userSpaceOnUse"
       id="clipPath5839">
      <rect
         style="fill:#00004d;fill-opacity:0;stroke-width:4.19804525"
         id="rect5841"
         width="1158.4565"
         height="318.85858"
         x="-38.343552"
         y="-16.496275" />
    </clipPath>
    <clipPath
       clipPathUnits="userSpaceOnUse"
       id="clipPath5843">
      <rect
         style="fill:#00004d;fill-opacity:0.89490446;stroke-width:0.29411766"
         id="rect5845"
         width="81.162178"
         height="22.339428"
         x="-22.396938"
         y="-3.6848304" />
    </clipPath>
    <clipPath
       clipPathUnits="userSpaceOnUse"
       id="clipPath5873">
      <rect
         style="fill:#00004d;fill-opacity:0.89490446"
         id="rect5875"
         width="263.14261"
         height="62.695801"
         x="22.696329"
         y="117.30578" />
    </clipPath>
    <linearGradient
       inkscape:collect="always"
       xlink:href="#675fe7c1-89dc-4e65-52fd-ea5d13f2661a"
       id="linearGradient5890"
       gradientTransform="scale(0.95245152,1.0499222)"
       x1="17.285893"
       y1="12.41236"
       x2="87.706326"
       y2="12.41236"
       gradientUnits="userSpaceOnUse" />
    <linearGradient
       inkscape:collect="always"
       xlink:href="#675fe7c1-89dc-4e65-52fd-ea5d13f2661a"
       id="linearGradient5892"
       gradientTransform="scale(0.95245152,1.0499222)"
       x1="17.285893"
       y1="12.41236"
       x2="87.706326"
       y2="12.41236"
       gradientUnits="userSpaceOnUse" />
    <linearGradient
       inkscape:collect="always"
       xlink:href="#675fe7c1-89dc-4e65-52fd-ea5d13f2661a"
       id="linearGradient5894"
       gradientTransform="scale(0.95245152,1.0499222)"
       x1="17.285893"
       y1="12.41236"
       x2="87.706326"
       y2="12.41236"
       gradientUnits="userSpaceOnUse" />
  </defs>
  <sodipodi:namedview
     pagecolor="#ffffff"
     bordercolor="#666666"
     borderopacity="1"
     objecttolerance="10"
     gridtolerance="10"
     guidetolerance="10"
     inkscape:pageopacity="0"
     inkscape:pageshadow="2"
     inkscape:window-width="3838"
     inkscape:window-height="2119"
     id="namedview5825"
     showgrid="false"
     inkscape:pagecheckerboard="true"
     borderlayer="false"
     inkscape:showpageshadow="true"
     inkscape:zoom="4.4500587"
     inkscape:cx="228.44"
     inkscape:cy="153.14136"
     inkscape:window-x="0"
     inkscape:window-y="39"
     inkscape:window-maximized="0"
     inkscape:current-layer="svg5823" />
  <!---->
  <!---->
  <!---->
  <linearGradient
     data-v-1084b650=""
     gradientTransform="rotate(25)"
     id="675fe7c1-89dc-4e65-52fd-ea5d13f2661a"
     x1="0%"
     y1="0%"
     x2="100"
     y2="0%">
    <stop
       data-v-1084b650=""
       offset="0%"
       style="stop-color: rgb(66, 15, 20); stop-opacity: 1;"
       id="stop5813" />
    <stop
       data-v-1084b650=""
       offset="100"
       style="stop-color: rgb(197, 84, 94); stop-opacity: 1;"
       id="stop5815" />
  </linearGradient>
  <g
     id="g5869"
     clip-path="url(#clipPath5873)"
     transform="translate(-15.954846,-10.786375)">
    <g
       clip-path="url(#clipPath5843)"
       style="fill:#000000"
       transform="matrix(3.4,0,0,3.4,95.25046,122.868)"
       id="063da5bf-1403-335e-d9b4-bd0cc8cd3653"
       data-v-1084b650="">
      <path
         inkscape:connector-curvature="0"
         id="path5810"
         d="m 4.52,3.78 v 0 q 1.44,0 2.29,0.72 v 0 0 q 0.85,0.72 0.85,1.98 v 0 0 q 0,1.26 -0.85,1.99 v 0 0 Q 5.96,9.2 4.52,9.2 v 0 H 2.16 v 3.82 H 1.46 V 3.78 Z M 4.44,8.54 v 0 q 1.2,0 1.84,-0.53 v 0 0 Q 6.92,7.48 6.92,6.48 v 0 0 Q 6.92,5.5 6.28,4.96 v 0 0 Q 5.64,4.42 4.44,4.42 v 0 H 2.16 v 4.12 z m 7.77,-2.66 v 0 q 1.55,0 2.44,0.97 v 0 0 q 0.89,0.98 0.89,2.67 v 0 0 q 0,1.69 -0.89,2.67 v 0 0 q -0.89,0.97 -2.44,0.97 v 0 0 q -1.56,0 -2.45,-0.97 v 0 0 Q 8.88,11.21 8.88,9.52 v 0 0 q 0,-1.69 0.88,-2.67 v 0 0 q 0.89,-0.97 2.45,-0.97 z m 0,0.6 v 0 q -1.23,0 -1.93,0.81 v 0 0 q -0.7,0.82 -0.7,2.23 v 0 0 q 0,1.41 0.7,2.23 v 0 0 q 0.7,0.81 1.93,0.81 v 0 0 q 1.23,0 1.93,-0.81 v 0 0 q 0.7,-0.82 0.7,-2.23 v 0 0 q 0,-1.41 -0.7,-2.23 v 0 0 Q 13.44,6.48 12.21,6.48 Z m 8.26,-0.6 v 0 q 1.55,0 2.44,0.97 v 0 0 q 0.89,0.98 0.89,2.67 v 0 0 q 0,1.69 -0.89,2.67 v 0 0 q -0.89,0.97 -2.44,0.97 v 0 0 q -1.56,0 -2.44,-0.97 v 0 0 Q 17.14,11.21 17.14,9.52 v 0 0 q 0,-1.69 0.89,-2.67 v 0 0 q 0.88,-0.97 2.44,-0.97 z m 0,0.6 v 0 q -1.23,0 -1.93,0.81 v 0 0 q -0.7,0.82 -0.7,2.23 v 0 0 q 0,1.41 0.7,2.23 v 0 0 q 0.7,0.81 1.93,0.81 v 0 0 q 1.23,0 1.93,-0.81 v 0 0 q 0.7,-0.82 0.7,-2.23 v 0 0 q 0,-1.41 -0.7,-2.23 v 0 0 Q 21.7,6.48 20.47,6.48 Z M 26.49,2.8 v 8.53 0 q 0,0.64 0.2,0.91 v 0 0 q 0.2,0.26 0.68,0.26 v 0 0 q 0.28,0 0.48,-0.04 v 0 0 q 0.19,-0.04 0.44,-0.15 v 0 l -0.09,0.67 v 0 q -0.4,0.18 -0.93,0.18 v 0 0 q -0.75,0 -1.12,-0.43 v 0 0 Q 25.79,12.31 25.79,11.4 v 0 -8.6 z m 6.21,0.84 v 0 q 2.61,0 3.49,2.04 v 0 l -0.6,0.49 v 0 Q 35.24,5.18 34.54,4.73 v 0 0 Q 33.85,4.28 32.72,4.28 v 0 0 q -0.81,0 -1.42,0.26 v 0 0 q -0.6,0.25 -0.91,0.68 v 0 0 Q 30.07,5.66 30.07,6.2 v 0 0 q 0,0.53 0.27,0.88 v 0 0 q 0.26,0.35 0.9,0.6 v 0 0 Q 31.88,7.92 33,8.12 v 0 0 q 1.8,0.31 2.56,0.9 v 0 0 q 0.76,0.58 0.76,1.62 v 0 0 q 0,0.74 -0.44,1.32 v 0 0 q -0.43,0.57 -1.22,0.88 v 0 0 q -0.79,0.32 -1.82,0.32 v 0 0 q -1.45,0 -2.45,-0.58 v 0 0 q -1,-0.58 -1.37,-1.63 v 0 l 0.62,-0.48 v 0 q 0.28,1 1.12,1.52 v 0 0 q 0.85,0.53 2.1,0.53 v 0 0 q 1.2,0 1.96,-0.49 v 0 0 q 0.77,-0.49 0.77,-1.35 v 0 0 q 0,-0.74 -0.63,-1.17 v 0 0 Q 34.34,9.07 32.8,8.81 v 0 0 Q 31.5,8.58 30.74,8.26 v 0 0 Q 29.99,7.94 29.66,7.46 v 0 0 Q 29.33,6.99 29.33,6.27 v 0 0 q 0,-0.71 0.41,-1.31 v 0 0 Q 30.16,4.35 30.92,4 V 4 4 Q 31.68,3.64 32.7,3.64 Z m 5.91,1.02 v 0 q -0.26,0 -0.43,-0.16 v 0 0 Q 38.02,4.34 38.02,4.07 v 0 0 q 0,-0.26 0.16,-0.42 v 0 0 q 0.17,-0.16 0.43,-0.16 v 0 0 q 0.27,0 0.43,0.16 v 0 0 q 0.16,0.16 0.16,0.42 v 0 0 q 0,0.27 -0.16,0.43 v 0 0 q -0.16,0.16 -0.43,0.16 z m 0.35,1.36 v 7 h -0.7 v -7 z M 49.85,5.87 v 0 q 1.17,0 1.9,0.67 v 0 0 q 0.74,0.67 0.74,1.93 v 0 4.54 h -0.7 v -4.47 0 q 0,-1.01 -0.55,-1.53 v 0 0 Q 50.69,6.48 49.77,6.48 v 0 0 q -0.67,0 -1.23,0.32 v 0 0 q -0.55,0.33 -0.88,0.9 v 0 0 q -0.33,0.57 -0.33,1.29 v 0 4.03 h -0.7 v -4.47 0 q 0,-1 -0.54,-1.53 v 0 0 Q 45.54,6.5 44.62,6.5 v 0 0 q -0.65,0 -1.21,0.3 v 0 0 q -0.56,0.31 -0.9,0.9 v 0 0 q -0.34,0.59 -0.34,1.36 v 0 3.96 h -0.7 v -7 h 0.63 l 0.04,1.4 v 0 q 0.34,-0.73 1.02,-1.13 v 0 0 q 0.69,-0.41 1.53,-0.41 v 0 0 q 0.89,0 1.57,0.42 v 0 0 q 0.67,0.42 0.93,1.22 v 0 0 q 0.28,-0.77 1.03,-1.21 v 0 0 q 0.75,-0.44 1.63,-0.44 z" />
    </g>
    <g
       clip-path="url(#clipPath5839)"
       style="fill:url(#linearGradient5894);stroke:none"
       transform="matrix(0.23820609,0,0,0.23820609,28.23454,114.26909)"
       id="76292bb6-bf11-5bd7-98bc-96042f1c3152"
       data-v-1084b650="">
      <svg
         height="200"
         width="100%"
         id="svg5820"
         xml:space="preserve"
         enable-background="new 0 0 100 100"
         viewBox="0 0 100 100"
         y="30px"
         x="0px"
         version="1.1"
         style="fill:url(#linearGradient5892)"><path
           inkscape:connector-curvature="0"
           id="path5818"
           d="m 67.523499,73.685738 c -0.155533,0 -0.312615,-0.0231 -0.468911,-0.07161 L 60.15255,71.468986 C 59.752934,71.344253 59.41954,71.067062 59.224735,70.696709 59.02993,70.326347 58.990662,69.894394 59.114628,69.494774 l 2.145916,-6.902027 c 0.258709,-0.833111 1.141865,-1.295864 1.974205,-1.037926 l 6.90126,2.145145 c 0.831574,0.258709 1.295868,1.14264 1.037926,1.974205 l -2.145142,6.902031 c -0.210205,0.676041 -0.833107,1.109536 -1.505294,1.109536 z M 37.119541,30.22335 16.712158,79.034714 c -0.680919,1.628654 0.08747,3.500183 1.715637,4.1809 1.62817,0.680718 3.499987,-0.08698 4.180903,-1.715637 L 43.126804,32.423794 C 41.526718,31.694782 38.312111,30.495113 37.119541,30.22335 Z M 49.426098,17.318241 c 0.581154,-1.593974 -0.177212,-3.377889 -1.758774,-4.03912 -1.590324,-0.664893 -3.405239,0.05874 -4.123531,1.609753 1.009044,0.247885 4.202816,1.586048 5.882305,2.429367 z M 74.918373,46.553432 C 74.482132,45.62014 64.000694,23.615479 43.636555,16.594847 35.490059,13.785907 27.961409,12.839116 21.258932,13.780698 c -3.780907,0.531023 -3.066946,11.113828 -2.550133,11.161344 7.295662,0.666727 14.215056,2.114768 20.565508,4.304723 19.001419,6.54504 31.749115,19.286667 32.201134,19.708546 0.452026,0.421879 2.696922,1.014595 3.065483,0.783981 0.368561,-0.230617 0.816132,-2.247604 0.377449,-3.18586 z m 4.947457,30.528332 c 0.404235,-0.107796 0.748413,-0.371895 0.957847,-0.734558 l 1.455246,-2.520119 c 0.208664,-0.361885 0.26564,-0.792297 0.157082,-1.196533 -0.107804,-0.404236 -0.372673,-0.748413 -0.734558,-0.957847 l -2.520119,-1.454476 c -0.756882,-0.435798 -1.718582,-0.177093 -2.154381,0.577484 l -1.454475,2.519348 c -0.435036,0.7538 -0.177101,1.718575 0.577476,2.153611 l 2.519348,1.455246 c 0.241768,0.140136 0.513573,0.211746 0.788452,0.211746 0.136284,0 0.273339,-0.01772 0.408082,-0.0539 z M 76.713272,64.681992 c -0.636772,0 -1.236572,-0.389611 -1.475265,-1.020985 l -1.98037,-5.245819 c -0.307221,-0.814632 0.103172,-1.724354 0.918579,-2.03196 l 5.245049,-1.980365 c 0.811546,-0.306836 1.723197,0.10279 2.031959,0.918193 l 1.981133,5.245434 c 0.147834,0.391915 0.133972,0.825413 -0.0385,1.206547 -0.1717,0.381138 -0.48816,0.678345 -0.880074,0.82618 l -5.245826,1.980365 c -0.183251,0.06931 -0.371125,0.10241 -0.556687,0.10241 z m -6.991844,21.540061 c 0.204185,-0.258941 0.296661,-0.588149 0.257553,-0.915924 l -0.271843,-2.277641 c -0.03923,-0.326919 -0.206551,-0.62545 -0.465973,-0.829277 -0.258934,-0.204185 -0.588638,-0.296295 -0.915916,-0.257545 l -2.277283,0.272323 c -0.683456,0.08244 -1.168167,0.69989 -1.086823,1.381889 l 0.271958,2.276795 c 0.08147,0.681152 0.69989,1.168175 1.381531,1.086342 l 2.277153,-0.271477 c 0.218757,-0.02575 0.424102,-0.108925 0.597572,-0.238747 0.086,-0.06436 0.164131,-0.140266 0.232071,-0.226738 z"
           style="fill:url(#linearGradient5890)" /></svg>    </g>
  </g>
</svg>
